<svg width="14" height="15" viewBox="0 0 14 15" fill="none" xmlns="http://www.w3.org/2000/svg">
<path d="M7 14.75C3.11719 14.75 0 11.6328 0 7.75C0 3.89453 3.11719 0.75 7 0.75C10.8555 0.75 14 3.89453 14 7.75C14 11.6328 10.8555 14.75 7 14.75ZM7 4.25C6.61719 4.25 6.34375 4.55078 6.34375 4.90625V7.96875C6.34375 8.35156 6.61719 8.625 7 8.625C7.35547 8.625 7.65625 8.35156 7.65625 7.96875V4.90625C7.65625 4.55078 7.35547 4.25 7 4.25ZM7.875 10.375C7.875 9.91016 7.46484 9.5 7 9.5C6.50781 9.5 6.125 9.91016 6.125 10.375C6.125 10.8672 6.50781 11.25 7 11.25C7.46484 11.25 7.875 10.8672 7.875 10.375Z" fill="#FCB813"/>
</svg>
