<svg width="52" height="53" viewBox="0 0 52 53" fill="none" xmlns="http://www.w3.org/2000/svg">
<path d="M24.6797 35.0312C23.5625 36.1484 21.8359 36.1484 20.7188 35.0312L14.2188 28.5312C13.1016 27.4141 13.1016 25.6875 14.2188 24.5703C15.3359 23.4531 17.0625 23.4531 18.1797 24.5703L22.75 29.0391L33.7188 18.0703C34.8359 16.9531 36.5625 16.9531 37.6797 18.0703C38.7969 19.1875 38.7969 20.9141 37.6797 22.0312L24.6797 35.0312ZM52 26.5C52 40.9219 40.3203 52.5 26 52.5C11.5781 52.5 0 40.9219 0 26.5C0 12.1797 11.5781 0.5 26 0.5C40.3203 0.5 52 12.1797 52 26.5ZM26 5.375C14.3203 5.375 4.875 14.9219 4.875 26.5C4.875 38.1797 14.3203 47.625 26 47.625C37.5781 47.625 47.125 38.1797 47.125 26.5C47.125 14.9219 37.5781 5.375 26 5.375Z" fill="#487D29"/>
</svg>
