<svg width="73" height="25" viewBox="0 0 73 25" fill="none" xmlns="http://www.w3.org/2000/svg">
<path d="M43.7237 0V4.05686H41.4906L41.3705 2.35303H38.6987V13.0815L40.2543 13.394V15.2236H34.2325V13.3955L35.7882 13.083V2.35303H33.127L33.0069 4.05686H30.7837V0H43.7237Z" fill="#2A2A2A"/>
<path d="M48.5131 15.2205C48.4329 15.0312 48.3631 14.8374 48.304 14.64C48.2441 14.443 48.1973 14.242 48.1641 14.0385C47.8142 14.4606 47.3852 14.8059 46.9027 15.0541C46.3741 15.3196 45.7916 15.4522 45.2034 15.4408C44.281 15.4908 43.3765 15.1662 42.6852 14.5369C42.3694 14.2173 42.1231 13.8327 41.9624 13.4083C41.8018 12.9839 41.7304 12.5293 41.753 12.0745C41.7339 11.5922 41.8358 11.1129 42.0488 10.6827C42.2618 10.2525 42.5789 9.88571 42.9695 9.61758C44.0481 8.96791 45.2916 8.66557 46.5393 8.74965H48.0249V7.64266C48.0386 7.4115 48.0058 7.17993 47.9286 6.96234C47.8515 6.74475 47.7316 6.54581 47.5763 6.37787C47.2099 6.05317 46.7329 5.89131 46.2503 5.92789C45.9504 5.92341 45.6515 5.96394 45.363 6.0482C45.1409 6.11125 44.9292 6.20815 44.735 6.33569L44.5457 7.54814H42.3529L42.3628 5.03887C42.9311 4.64324 43.546 4.3235 44.1929 4.08735C44.9141 3.82369 45.6749 3.69278 46.4404 3.70064C47.6087 3.6462 48.7592 4.01013 49.6954 4.73029C50.1135 5.08379 50.4447 5.53351 50.6621 6.04302C50.8795 6.55254 50.9771 7.10751 50.9469 7.66298V12.3378C50.9469 12.5112 50.9469 12.676 50.9514 12.8292C50.9544 12.9764 50.966 13.1233 50.9864 13.269L51.8737 13.394V15.2205H48.5131ZM45.9903 13.1815C46.4073 13.1867 46.8188 13.0841 47.1871 12.8831C47.5205 12.7069 47.8075 12.4504 48.0234 12.1354V10.4136H46.5377C46.0298 10.3762 45.5271 10.5391 45.1319 10.8691C44.9802 11.0052 44.8589 11.1734 44.7763 11.3622C44.6938 11.551 44.6519 11.7559 44.6536 11.9628C44.6448 12.1302 44.672 12.2976 44.7333 12.453C44.7945 12.6084 44.8883 12.748 45.008 12.862C45.2846 13.0921 45.6351 13.2072 45.9903 13.1846V13.1815Z" fill="#2A2A2A"/>
<path d="M50.8828 5.75215V3.91161H55.1102L55.2494 5.22952C55.542 4.76767 55.9344 4.38137 56.3959 4.10066C56.8705 3.82814 57.4073 3.69112 57.9508 3.7038C58.5627 3.67997 59.1703 3.81838 59.7151 4.10571C60.2599 4.39303 60.7235 4.8196 61.0613 5.34436C61.8522 6.63339 62.2386 8.14088 62.1684 9.66293V9.88245C62.2368 11.3159 61.8481 12.7332 61.0613 13.919C60.7083 14.4152 60.2415 14.8142 59.7023 15.0805C59.1631 15.3468 58.5683 15.4722 57.9706 15.4455C57.4509 15.4558 56.9358 15.3433 56.4651 15.1166C56.0199 14.8914 55.6338 14.5597 55.3391 14.1495V17.422L56.7442 17.7345V19.575H51.0318V17.736L52.4377 17.4235V6.0662L50.8828 5.75215ZM59.254 9.66293C59.2896 8.76896 59.1151 7.87934 58.7454 7.06929C58.6101 6.76492 58.3904 6.50835 58.1138 6.33172C57.8372 6.15509 57.516 6.06626 57.1905 6.07636C56.7986 6.06423 56.4109 6.16199 56.069 6.35916C55.7562 6.55133 55.5024 6.83022 55.3368 7.16381V12.1199C55.5067 12.4316 55.7611 12.6859 56.069 12.8519C56.4236 13.0296 56.8151 13.1157 57.2095 13.1026C57.5211 13.1216 57.8316 13.0504 58.1057 12.8969C58.3798 12.7435 58.6064 12.514 58.7598 12.2347C59.1221 11.5086 59.2922 10.6974 59.2533 9.88245L59.254 9.66293Z" fill="#2A2A2A"/>
<path d="M61.704 5.75215V3.91161H65.9314L66.0705 5.22952C66.3638 4.7674 66.757 4.38109 67.2194 4.10066C67.6939 3.82814 68.2308 3.69112 68.7743 3.7038C69.3862 3.67997 69.9938 3.81838 70.5385 4.10571C71.0833 4.39303 71.5469 4.8196 71.8848 5.34436C72.6756 6.63339 73.062 8.14088 72.9918 9.66293V9.88245C73.0603 11.3159 72.6716 12.7332 71.8848 13.919C71.5318 14.4152 71.0649 14.8142 70.5257 15.0805C69.9866 15.3468 69.3917 15.4722 68.794 15.4455C68.2743 15.4558 67.7593 15.3433 67.2886 15.1166C66.8434 14.8914 66.4572 14.5597 66.1625 14.1495V17.422L67.5676 17.7345V19.575H61.8553V17.736L63.2611 17.4235V6.0662L61.704 5.75215ZM70.079 9.66371C70.1146 8.76974 69.9401 7.88012 69.5703 7.07007C69.435 6.7657 69.2153 6.50913 68.9387 6.3325C68.6622 6.15587 68.341 6.06704 68.0155 6.07714C67.6236 6.06501 67.2359 6.16278 66.894 6.35994C66.5812 6.55212 66.3274 6.831 66.1618 7.1646V12.1206C66.3317 12.4323 66.5861 12.6866 66.894 12.8526C67.2486 13.0304 67.6401 13.1164 68.0345 13.1034C68.3461 13.1224 68.6566 13.0511 68.9307 12.8977C69.2048 12.7442 69.4314 12.5148 69.5848 12.2355C69.947 11.5094 70.1172 10.6982 70.0782 9.88323L70.079 9.66371Z" fill="#2A2A2A"/>
<path d="M25.6057 24.999C25.2807 24.9978 24.959 24.932 24.6584 24.8052C24.1261 24.5841 22.4701 23.6131 23.4928 20.4015C24.16 18.5386 25.1609 16.8205 26.4436 15.3361C26.0623 15.2903 25.6953 15.1592 25.3685 14.9522C25.0418 14.7452 24.763 14.4672 24.5519 14.1377C24.365 13.8347 24.2296 13.5014 24.1512 13.1518C23.6277 14.0762 22.8471 14.8187 21.9098 15.2838C21.575 15.4186 21.2137 15.4696 20.856 15.4325C20.4982 15.3955 20.1541 15.2713 19.8523 15.0705C18.1256 13.9697 18.9323 12.0198 19.5216 10.5957C20.2948 8.72622 20.4089 8.06374 19.6174 7.56298C19.4775 7.47471 19.0517 7.20519 18.1454 7.79735C17.5185 8.24048 16.964 8.78286 16.5023 9.40432C16.5184 9.81633 16.5034 10.229 16.4575 10.6386C16.237 12.6581 15.1923 15.4587 13.5393 15.3916C13.2951 15.3803 13.0606 15.2905 12.8689 15.1347C12.6771 14.979 12.538 14.7652 12.471 14.5236C12.1137 13.3643 13.2238 10.8675 14.6418 8.85902C14.4327 7.7286 13.8556 7.4833 13.4336 7.40049C12.6744 7.3892 11.9398 7.67714 11.3807 8.20515C11.4802 10.0434 11.0829 11.8741 10.2326 13.4948C9.39628 15.0572 8.35463 15.7705 7.37685 15.4478C6.54048 15.1728 5.79308 14.276 6.19605 12.5776C6.75469 10.7868 7.73059 9.16323 9.03892 7.84813C9.15221 7.72938 9.27919 7.60126 9.41909 7.46924C9.30868 7.11374 9.11158 6.79317 8.84656 6.53803C8.40534 6.12437 7.86876 5.83311 7.28752 5.69177C6.70628 5.55043 6.09956 5.56367 5.52468 5.73025C3.87705 6.19195 2.5001 7.77548 1.74737 10.0754C1.71089 10.1914 1.65224 10.2989 1.57486 10.3914C1.49748 10.4838 1.40292 10.5595 1.29672 10.614C1.19052 10.6685 1.07481 10.7007 0.956356 10.7087C0.837905 10.7167 0.719095 10.7003 0.606878 10.6605C0.379949 10.5755 0.194492 10.4025 0.0902982 10.1786C-0.0138953 9.9547 -0.0285222 9.69776 0.0495574 9.4629C0.999208 6.55912 2.82628 4.53499 5.06088 3.90845C5.92048 3.66025 6.82745 3.64111 7.69625 3.85283C8.56504 4.06455 9.36703 4.50015 10.0266 5.11856C10.3848 5.44861 10.6778 5.84647 10.8896 6.29038C11.724 5.684 12.7484 5.41884 13.7628 5.54666C14.2329 5.63266 14.6773 5.82933 15.061 6.12127C15.4447 6.41322 15.7574 6.79251 15.9746 7.22941C16.1736 7.02164 16.3832 6.825 16.6027 6.64037C18.4936 5.06387 19.885 5.52948 20.545 5.94665C22.81 7.3794 21.8231 9.76602 21.1692 11.3456C20.5564 12.83 20.4773 13.2612 20.789 13.4549C20.8616 13.5087 20.9465 13.5421 21.0354 13.5518C21.1244 13.5616 21.2143 13.5473 21.2962 13.5104C22.3971 13.0854 23.8881 10.3496 25.0978 6.53959C25.133 6.42431 25.1899 6.31729 25.2653 6.22464C25.3408 6.132 25.4333 6.05555 25.5375 5.99967C25.6418 5.9438 25.7557 5.9096 25.8728 5.89902C25.9899 5.88845 26.1079 5.90171 26.2201 5.93805C26.4473 6.0163 26.6359 6.18243 26.746 6.4012C26.856 6.61997 26.8787 6.87417 26.8093 7.10988C26.3174 8.83715 25.402 12.0526 26.0589 13.0979C26.1416 13.2178 26.2513 13.3152 26.3787 13.3819C26.5061 13.4486 26.6474 13.4825 26.7903 13.4807C29.0842 13.7534 30.4399 9.9871 30.8961 6.67709C30.9247 6.45759 31.0286 6.25582 31.1892 6.10813C31.3498 5.96045 31.5565 5.87659 31.772 5.87165C31.9871 5.87243 32.1949 5.95124 32.359 6.09417C32.523 6.23711 32.6326 6.43498 32.6684 6.65287C32.8034 7.86445 32.7852 9.08888 32.6144 10.2957C35.2203 8.85732 38.2572 8.47809 41.1225 9.23323C41.3541 9.30319 41.5496 9.46385 41.667 9.68057C41.7843 9.8973 41.814 10.1527 41.7498 10.3918C41.7202 10.5099 41.6681 10.6208 41.5964 10.7181C41.5247 10.8153 41.4349 10.897 41.3323 10.9583C41.2296 11.0195 41.1161 11.0592 40.9984 11.075C40.8807 11.0909 40.7611 11.0825 40.6465 11.0503C37.7573 10.2152 34.8125 11.0449 32.2692 12.6245C31.4648 17.0696 29.7297 22.3116 27.5202 24.2037C26.9957 24.6964 26.3161 24.9787 25.6057 24.999ZM30.0917 14.2244C27.9179 16.0106 26.2309 18.3442 25.1944 20.9984C25.0621 21.4132 24.6812 22.7866 25.3183 23.0514C25.4597 23.11 25.7897 23.2467 26.3828 22.7389C27.5833 21.714 28.882 18.8891 29.8567 15.1861C29.9393 14.8658 30.0184 14.5455 30.0939 14.2252L30.0917 14.2244ZM9.49512 10.1262C9.37347 10.2824 9.2546 10.4449 9.13853 10.6136C8.00336 12.2464 7.82316 13.3213 7.8817 13.6065C8.7119 12.7407 9.25543 11.6282 9.43506 10.4269C9.4571 10.3254 9.47991 10.2246 9.49512 10.1262Z" fill="#2A2A2A"/>
</svg>
