<svg width="300" height="300" viewBox="0 0 300 300" fill="none" xmlns="http://www.w3.org/2000/svg">
<circle cx="150" cy="150" r="150" fill="#FCB813"/>
<path d="M214.348 174.139C197.366 188.074 184.663 205.656 180.106 219.322C179.184 222.088 176.52 231.248 180.971 233.013C181.958 233.405 184.261 234.318 188.397 230.944C196.803 224.087 205.876 205.247 212.671 180.551C213.259 178.416 213.817 176.275 214.345 174.139H214.348ZM70.3827 146.803C69.5347 147.856 68.7032 148.939 67.8908 150.052C59.9555 160.944 58.6972 168.11 59.1075 170.01C61.7471 168.486 67.2917 160.59 69.9642 148.804C70.1173 148.13 70.2569 147.461 70.3799 146.8L70.3827 146.803ZM182.978 245.995C180.432 245.995 178.191 245.433 176.356 244.703C172.639 243.228 161.063 236.753 168.207 215.336C171.646 205.031 178.894 193.001 188.835 181.555C181.561 180.455 177.639 176.639 175.612 173.563C174.318 171.6 173.405 169.399 172.811 166.989C168.15 173.769 162.887 179.093 157.146 181.207C152.241 183.011 147.268 182.523 142.769 179.784C130.7 172.442 136.338 159.436 140.454 149.937C145.86 137.468 146.658 133.052 141.122 129.712C140.145 129.126 137.169 127.327 130.834 131.28C126.884 133.748 122.954 137.6 119.351 142C119.469 144.599 119.368 147.349 119.037 150.233C117.494 163.699 110.196 182.374 98.6444 181.928C95.1404 181.771 92.282 179.556 91.1769 176.143C88.6768 168.415 96.4397 151.76 106.344 138.365C104.889 130.817 100.857 129.189 97.884 128.632C94.1995 127.941 89.0351 130.008 83.5452 133.997C84.6339 146.323 80.6923 160.042 75.5252 169.273C69.6852 179.701 62.3982 184.45 55.568 182.292C49.7307 180.455 44.498 174.462 47.3126 163.151C49.6623 153.714 57.4608 141.331 67.1823 131.607C67.9756 130.812 68.8591 129.962 69.8219 129.079C68.9138 126.516 67.5735 124.407 65.8201 122.872C59.3728 117.225 50.9124 115.256 42.6023 117.482C31.0865 120.561 21.4662 131.124 16.2061 146.463C15.0819 149.747 11.515 151.494 8.23526 150.364C4.9583 149.235 3.21587 145.66 4.34284 142.375C10.9843 123.012 23.7502 109.51 39.3691 105.335C51.7767 102.015 64.4278 104.956 74.0754 113.406C76.6412 115.654 78.6243 118.305 80.1042 121.236C86.1876 117.537 93.2312 114.982 100.184 116.273C107.119 117.57 112.395 121.529 115.647 127.497C117.125 126.039 118.593 124.72 120.038 123.571C133.255 113.055 142.976 116.161 147.594 118.946C163.426 128.501 156.525 144.418 151.959 154.951C147.676 164.834 147.123 167.729 149.279 169.04C150.507 169.788 151.503 169.892 152.821 169.407C160.516 166.575 170.935 148.327 179.365 122.919C180.445 119.659 183.933 117.877 187.205 118.908C190.473 119.942 192.306 123.412 191.324 126.705C187.886 138.225 181.485 159.669 186.078 166.641C186.731 167.63 187.902 168.818 191.193 169.193C207.225 171.014 216.686 145.893 219.911 123.821C220.357 120.767 222.95 118.488 226.033 118.445C229.025 118.42 231.769 120.608 232.297 123.651C233.282 129.312 233.101 137.899 231.922 147.946C250.26 139.047 270.803 135.182 291.389 140.859C294.729 141.781 296.693 145.24 295.774 148.588C294.852 151.935 291.405 153.901 288.063 152.98C267.843 147.406 247.287 152.941 229.515 163.477C223.891 193.124 211.763 228.101 196.319 240.701C191.417 244.701 186.846 246 182.978 246V245.995Z" fill="#201C1C"/>
</svg>
