<svg width="107" height="107" viewBox="0 0 107 107" fill="none" xmlns="http://www.w3.org/2000/svg">
<path d="M2.97222 0.5H104.028C105.393 0.5 106.5 1.60685 106.5 2.97222V104.028C106.5 105.393 105.393 106.5 104.028 106.5H2.97222C1.60685 106.5 0.5 105.393 0.5 104.028V2.97222C0.5 1.60685 1.60685 0.5 2.97222 0.5Z" fill="white" stroke="#FEA434"/>
<path d="M10.2902 6.11719H6.1145V10.2929H10.2902V6.11719Z" fill="#21272D"/>
<path d="M14.4661 6.11719H10.2904V10.2929H14.4661V6.11719Z" fill="#21272D"/>
<path d="M18.6414 6.11719H14.4657V10.2929H18.6414V6.11719Z" fill="#21272D"/>
<path d="M22.8173 6.11719H18.6416V10.2929H22.8173V6.11719Z" fill="#21272D"/>
<path d="M26.4473 6.11719H22.2716V10.2929H26.4473V6.11719Z" fill="#21272D"/>
<path d="M29.1641 6.11719H24.9884V10.2929H29.1641V6.11719Z" fill="#21272D"/>
<path d="M32.9389 6.11719H28.7632V10.2929H32.9389V6.11719Z" fill="#21272D"/>
<path d="M40.4884 6.11719H36.3127V10.2929H40.4884V6.11719Z" fill="#21272D"/>
<path d="M51.8132 6.11719H47.6375V10.2929H51.8132V6.11719Z" fill="#21272D"/>
<path d="M55.588 6.11719H51.4123V10.2929H55.588V6.11719Z" fill="#21272D"/>
<path d="M59.3634 6.11719H55.1877V10.2929H59.3634V6.11719Z" fill="#21272D"/>
<path d="M63.1371 6.11719H58.9614V10.2929H63.1371V6.11719Z" fill="#21272D"/>
<path d="M78.2367 6.11719H74.061V10.2929H78.2367V6.11719Z" fill="#21272D"/>
<path d="M82.0121 6.11719H77.8364V10.2929H82.0121V6.11719Z" fill="#21272D"/>
<path d="M84.7289 6.11719H80.5532V10.2929H84.7289V6.11719Z" fill="#21272D"/>
<path d="M88.3589 6.11719H84.1832V10.2929H88.3589V6.11719Z" fill="#21272D"/>
<path d="M92.5341 6.11719H88.3585V10.2929H92.5341V6.11719Z" fill="#21272D"/>
<path d="M96.71 6.11719H92.5343V10.2929H96.71V6.11719Z" fill="#21272D"/>
<path d="M100.885 6.11719H96.7097V10.2929H100.885V6.11719Z" fill="#21272D"/>
<path d="M10.2902 10.293H6.1145V14.4687H10.2902V10.293Z" fill="#21272D"/>
<path d="M32.9389 10.293H28.7632V14.4687H32.9389V10.293Z" fill="#21272D"/>
<path d="M44.2636 10.293H40.088V14.4687H44.2636V10.293Z" fill="#21272D"/>
<path d="M48.0384 10.293H43.8627V14.4687H48.0384V10.293Z" fill="#21272D"/>
<path d="M63.1371 10.293H58.9614V14.4687H63.1371V10.293Z" fill="#21272D"/>
<path d="M78.2367 10.293H74.061V14.4687H78.2367V10.293Z" fill="#21272D"/>
<path d="M100.885 10.293H96.7097V14.4687H100.885V10.293Z" fill="#21272D"/>
<path d="M10.2902 14.4668H6.1145V18.6425H10.2902V14.4668Z" fill="#21272D"/>
<path d="M18.6414 14.4668H14.4657V18.6425H18.6414V14.4668Z" fill="#21272D"/>
<path d="M22.8173 14.4668H18.6416V18.6425H22.8173V14.4668Z" fill="#21272D"/>
<path d="M26.4473 14.4668H22.2716V18.6425H26.4473V14.4668Z" fill="#21272D"/>
<path d="M32.9389 14.4668H28.7632V18.6425H32.9389V14.4668Z" fill="#21272D"/>
<path d="M48.0384 14.4668H43.8627V18.6425H48.0384V14.4668Z" fill="#21272D"/>
<path d="M55.588 14.4668H51.4123V18.6425H55.588V14.4668Z" fill="#21272D"/>
<path d="M59.3634 14.4668H55.1877V18.6425H59.3634V14.4668Z" fill="#21272D"/>
<path d="M63.1371 14.4668H58.9614V18.6425H63.1371V14.4668Z" fill="#21272D"/>
<path d="M78.2367 14.4668H74.061V18.6425H78.2367V14.4668Z" fill="#21272D"/>
<path d="M84.7289 14.4668H80.5532V18.6425H84.7289V14.4668Z" fill="#21272D"/>
<path d="M88.3589 14.4668H84.1832V18.6425H88.3589V14.4668Z" fill="#21272D"/>
<path d="M92.5341 14.4668H88.3585V18.6425H92.5341V14.4668Z" fill="#21272D"/>
<path d="M100.885 14.4668H96.7097V18.6425H100.885V14.4668Z" fill="#21272D"/>
<path d="M10.2902 18.6445H6.1145V22.8202H10.2902V18.6445Z" fill="#21272D"/>
<path d="M18.6414 18.6445H14.4657V22.8202H18.6414V18.6445Z" fill="#21272D"/>
<path d="M22.8173 18.6445H18.6416V22.8202H22.8173V18.6445Z" fill="#21272D"/>
<path d="M26.4473 18.6445H22.2716V22.8202H26.4473V18.6445Z" fill="#21272D"/>
<path d="M32.9389 18.6445H28.7632V22.8202H32.9389V18.6445Z" fill="#21272D"/>
<path d="M55.588 18.6445H51.4123V22.8202H55.588V18.6445Z" fill="#21272D"/>
<path d="M59.3634 18.6445H55.1877V22.8202H59.3634V18.6445Z" fill="#21272D"/>
<path d="M66.9124 18.6445H62.7367V22.8202H66.9124V18.6445Z" fill="#21272D"/>
<path d="M70.6872 18.6445H66.5115V22.8202H70.6872V18.6445Z" fill="#21272D"/>
<path d="M78.2367 18.6445H74.061V22.8202H78.2367V18.6445Z" fill="#21272D"/>
<path d="M84.7289 18.6445H80.5532V22.8202H84.7289V18.6445Z" fill="#21272D"/>
<path d="M88.3589 18.6445H84.1832V22.8202H88.3589V18.6445Z" fill="#21272D"/>
<path d="M92.5341 18.6445H88.3585V22.8202H92.5341V18.6445Z" fill="#21272D"/>
<path d="M100.885 18.6445H96.7097V22.8202H100.885V18.6445Z" fill="#21272D"/>
<path d="M10.2902 22.2715H6.1145V26.4472H10.2902V22.2715Z" fill="#21272D"/>
<path d="M18.6414 22.2715H14.4657V26.4472H18.6414V22.2715Z" fill="#21272D"/>
<path d="M22.8173 22.2715H18.6416V26.4472H22.8173V22.2715Z" fill="#21272D"/>
<path d="M26.4473 22.2715H22.2716V26.4472H26.4473V22.2715Z" fill="#21272D"/>
<path d="M32.9389 22.2715H28.7632V26.4472H32.9389V22.2715Z" fill="#21272D"/>
<path d="M44.2636 22.2715H40.088V26.4472H44.2636V22.2715Z" fill="#21272D"/>
<path d="M51.8132 22.2715H47.6375V26.4472H51.8132V22.2715Z" fill="#21272D"/>
<path d="M59.3634 22.2715H55.1877V26.4472H59.3634V22.2715Z" fill="#21272D"/>
<path d="M63.1371 22.2715H58.9614V26.4472H63.1371V22.2715Z" fill="#21272D"/>
<path d="M78.2367 22.2715H74.061V26.4472H78.2367V22.2715Z" fill="#21272D"/>
<path d="M84.7289 22.2715H80.5532V26.4472H84.7289V22.2715Z" fill="#21272D"/>
<path d="M88.3589 22.2715H84.1832V26.4472H88.3589V22.2715Z" fill="#21272D"/>
<path d="M92.5341 22.2715H88.3585V26.4472H92.5341V22.2715Z" fill="#21272D"/>
<path d="M100.885 22.2715H96.7097V26.4472H100.885V22.2715Z" fill="#21272D"/>
<path d="M10.2902 24.9883H6.1145V29.164H10.2902V24.9883Z" fill="#21272D"/>
<path d="M32.9389 24.9883H28.7632V29.164H32.9389V24.9883Z" fill="#21272D"/>
<path d="M48.0384 24.9883H43.8627V29.164H48.0384V24.9883Z" fill="#21272D"/>
<path d="M55.588 24.9883H51.4123V29.164H55.588V24.9883Z" fill="#21272D"/>
<path d="M59.3634 24.9883H55.1877V29.164H59.3634V24.9883Z" fill="#21272D"/>
<path d="M63.1371 24.9883H58.9614V29.164H63.1371V24.9883Z" fill="#21272D"/>
<path d="M78.2367 24.9883H74.061V29.164H78.2367V24.9883Z" fill="#21272D"/>
<path d="M100.885 24.9883H96.7097V29.164H100.885V24.9883Z" fill="#21272D"/>
<path d="M10.2902 28.7637H6.1145V32.9394H10.2902V28.7637Z" fill="#21272D"/>
<path d="M14.4661 28.7637H10.2904V32.9394H14.4661V28.7637Z" fill="#21272D"/>
<path d="M18.6414 28.7637H14.4657V32.9394H18.6414V28.7637Z" fill="#21272D"/>
<path d="M22.8173 28.7637H18.6416V32.9394H22.8173V28.7637Z" fill="#21272D"/>
<path d="M26.4473 28.7637H22.2716V32.9394H26.4473V28.7637Z" fill="#21272D"/>
<path d="M29.1641 28.7637H24.9884V32.9394H29.1641V28.7637Z" fill="#21272D"/>
<path d="M32.9389 28.7637H28.7632V32.9394H32.9389V28.7637Z" fill="#21272D"/>
<path d="M40.4884 28.7637H36.3127V32.9394H40.4884V28.7637Z" fill="#21272D"/>
<path d="M48.0384 28.7637H43.8627V32.9394H48.0384V28.7637Z" fill="#21272D"/>
<path d="M55.588 28.7637H51.4123V32.9394H55.588V28.7637Z" fill="#21272D"/>
<path d="M63.1371 28.7637H58.9614V32.9394H63.1371V28.7637Z" fill="#21272D"/>
<path d="M70.6872 28.7637H66.5115V32.9394H70.6872V28.7637Z" fill="#21272D"/>
<path d="M78.2367 28.7637H74.061V32.9394H78.2367V28.7637Z" fill="#21272D"/>
<path d="M82.0121 28.7637H77.8364V32.9394H82.0121V28.7637Z" fill="#21272D"/>
<path d="M84.7289 28.7637H80.5532V32.9394H84.7289V28.7637Z" fill="#21272D"/>
<path d="M88.3589 28.7637H84.1832V32.9394H88.3589V28.7637Z" fill="#21272D"/>
<path d="M92.5341 28.7637H88.3585V32.9394H92.5341V28.7637Z" fill="#21272D"/>
<path d="M96.71 28.7637H92.5343V32.9394H96.71V28.7637Z" fill="#21272D"/>
<path d="M100.885 28.7637H96.7097V32.9394H100.885V28.7637Z" fill="#21272D"/>
<path d="M40.4884 32.541H36.3127V36.7167H40.4884V32.541Z" fill="#21272D"/>
<path d="M48.0384 32.541H43.8627V36.7167H48.0384V32.541Z" fill="#21272D"/>
<path d="M51.8132 32.541H47.6375V36.7167H51.8132V32.541Z" fill="#21272D"/>
<path d="M59.3634 32.541H55.1877V36.7167H59.3634V32.541Z" fill="#21272D"/>
<path d="M70.6872 32.541H66.5115V36.7167H70.6872V32.541Z" fill="#21272D"/>
<path d="M10.2902 36.3164H6.1145V40.4921H10.2902V36.3164Z" fill="#21272D"/>
<path d="M14.4661 36.3164H10.2904V40.4921H14.4661V36.3164Z" fill="#21272D"/>
<path d="M22.8173 36.3164H18.6416V40.4921H22.8173V36.3164Z" fill="#21272D"/>
<path d="M26.4473 36.3164H22.2716V40.4921H26.4473V36.3164Z" fill="#21272D"/>
<path d="M32.9389 36.3164H28.7632V40.4921H32.9389V36.3164Z" fill="#21272D"/>
<path d="M44.2636 36.3164H40.088V40.4921H44.2636V36.3164Z" fill="#21272D"/>
<path d="M48.0384 36.3164H43.8627V40.4921H48.0384V36.3164Z" fill="#21272D"/>
<path d="M51.8132 36.3164H47.6375V40.4921H51.8132V36.3164Z" fill="#21272D"/>
<path d="M63.1371 36.3164H58.9614V40.4921H63.1371V36.3164Z" fill="#21272D"/>
<path d="M70.6872 36.3164H66.5115V40.4921H70.6872V36.3164Z" fill="#21272D"/>
<path d="M78.2367 36.3164H74.061V40.4921H78.2367V36.3164Z" fill="#21272D"/>
<path d="M100.885 36.3164H96.7097V40.4921H100.885V36.3164Z" fill="#21272D"/>
<path d="M18.6414 40.0898H14.4657V44.2655H18.6414V40.0898Z" fill="#21272D"/>
<path d="M36.7141 40.0898H32.5384V44.2655H36.7141V40.0898Z" fill="#21272D"/>
<path d="M40.4884 40.0898H36.3127V44.2655H40.4884V40.0898Z" fill="#21272D"/>
<path d="M44.2636 40.0898H40.088V44.2655H44.2636V40.0898Z" fill="#21272D"/>
<path d="M55.588 40.0898H51.4123V44.2655H55.588V40.0898Z" fill="#21272D"/>
<path d="M59.3634 40.0898H55.1877V44.2655H59.3634V40.0898Z" fill="#21272D"/>
<path d="M63.1371 40.0898H58.9614V44.2655H63.1371V40.0898Z" fill="#21272D"/>
<path d="M66.9124 40.0898H62.7367V44.2655H66.9124V40.0898Z" fill="#21272D"/>
<path d="M74.4619 40.0898H70.2863V44.2655H74.4619V40.0898Z" fill="#21272D"/>
<path d="M82.0121 40.0898H77.8364V44.2655H82.0121V40.0898Z" fill="#21272D"/>
<path d="M84.7289 40.0898H80.5532V44.2655H84.7289V40.0898Z" fill="#21272D"/>
<path d="M88.3589 40.0898H84.1832V44.2655H88.3589V40.0898Z" fill="#21272D"/>
<path d="M92.5341 40.0898H88.3585V44.2655H92.5341V40.0898Z" fill="#21272D"/>
<path d="M96.71 40.0898H92.5343V44.2655H96.71V40.0898Z" fill="#21272D"/>
<path d="M14.4661 43.8652H10.2904V48.0409H14.4661V43.8652Z" fill="#21272D"/>
<path d="M18.6414 43.8652H14.4657V48.0409H18.6414V43.8652Z" fill="#21272D"/>
<path d="M26.4473 43.8652H22.2716V48.0409H26.4473V43.8652Z" fill="#21272D"/>
<path d="M32.9389 43.8652H28.7632V48.0409H32.9389V43.8652Z" fill="#21272D"/>
<path d="M36.7141 43.8652H32.5384V48.0409H36.7141V43.8652Z" fill="#21272D"/>
<path d="M48.0384 43.8652H43.8627V48.0409H48.0384V43.8652Z" fill="#21272D"/>
<path d="M51.8132 43.8652H47.6375V48.0409H51.8132V43.8652Z" fill="#21272D"/>
<path d="M66.9124 43.8652H62.7367V48.0409H66.9124V43.8652Z" fill="#21272D"/>
<path d="M70.6872 43.8652H66.5115V48.0409H70.6872V43.8652Z" fill="#21272D"/>
<path d="M78.2367 43.8652H74.061V48.0409H78.2367V43.8652Z" fill="#21272D"/>
<path d="M82.0121 43.8652H77.8364V48.0409H82.0121V43.8652Z" fill="#21272D"/>
<path d="M88.3589 43.8652H84.1832V48.0409H88.3589V43.8652Z" fill="#21272D"/>
<path d="M100.885 43.8652H96.7097V48.0409H100.885V43.8652Z" fill="#21272D"/>
<path d="M14.4661 47.6426H10.2904V51.8183H14.4661V47.6426Z" fill="#21272D"/>
<path d="M22.8173 47.6426H18.6416V51.8183H22.8173V47.6426Z" fill="#21272D"/>
<path d="M26.4473 47.6426H22.2716V51.8183H26.4473V47.6426Z" fill="#21272D"/>
<path d="M29.1641 47.6426H24.9884V51.8183H29.1641V47.6426Z" fill="#21272D"/>
<path d="M36.7141 47.6426H32.5384V51.8183H36.7141V47.6426Z" fill="#21272D"/>
<path d="M44.2636 47.6426H40.088V51.8183H44.2636V47.6426Z" fill="#21272D"/>
<path d="M48.0384 47.6426H43.8627V51.8183H48.0384V47.6426Z" fill="#21272D"/>
<path d="M51.8132 47.6426H47.6375V51.8183H51.8132V47.6426Z" fill="#21272D"/>
<path d="M55.588 47.6426H51.4123V51.8183H55.588V47.6426Z" fill="#21272D"/>
<path d="M63.1371 47.6426H58.9614V51.8183H63.1371V47.6426Z" fill="#21272D"/>
<path d="M70.6872 47.6426H66.5115V51.8183H70.6872V47.6426Z" fill="#21272D"/>
<path d="M82.0121 47.6426H77.8364V51.8183H82.0121V47.6426Z" fill="#21272D"/>
<path d="M88.3589 47.6426H84.1832V51.8183H88.3589V47.6426Z" fill="#21272D"/>
<path d="M92.5341 47.6426H88.3585V51.8183H92.5341V47.6426Z" fill="#21272D"/>
<path d="M96.71 47.6426H92.5343V51.8183H96.71V47.6426Z" fill="#21272D"/>
<path d="M100.885 47.6426H96.7097V51.8183H100.885V47.6426Z" fill="#21272D"/>
<path d="M14.4661 51.4141H10.2904V55.5897H14.4661V51.4141Z" fill="#21272D"/>
<path d="M18.6414 51.4141H14.4657V55.5897H18.6414V51.4141Z" fill="#21272D"/>
<path d="M29.1641 51.4141H24.9884V55.5897H29.1641V51.4141Z" fill="#21272D"/>
<path d="M32.9389 51.4141H28.7632V55.5897H32.9389V51.4141Z" fill="#21272D"/>
<path d="M40.4884 51.4141H36.3127V55.5897H40.4884V51.4141Z" fill="#21272D"/>
<path d="M44.2636 51.4141H40.088V55.5897H44.2636V51.4141Z" fill="#21272D"/>
<path d="M51.8132 51.4141H47.6375V55.5897H51.8132V51.4141Z" fill="#21272D"/>
<path d="M55.588 51.4141H51.4123V55.5897H55.588V51.4141Z" fill="#21272D"/>
<path d="M63.1371 51.4141H58.9614V55.5897H63.1371V51.4141Z" fill="#21272D"/>
<path d="M70.6872 51.4141H66.5115V55.5897H70.6872V51.4141Z" fill="#21272D"/>
<path d="M74.4619 51.4141H70.2863V55.5897H74.4619V51.4141Z" fill="#21272D"/>
<path d="M78.2367 51.4141H74.061V55.5897H78.2367V51.4141Z" fill="#21272D"/>
<path d="M100.885 51.4141H96.7097V55.5897H100.885V51.4141Z" fill="#21272D"/>
<path d="M10.2902 55.1875H6.1145V59.3632H10.2902V55.1875Z" fill="#21272D"/>
<path d="M18.6414 55.1875H14.4657V59.3632H18.6414V55.1875Z" fill="#21272D"/>
<path d="M22.8173 55.1875H18.6416V59.3632H22.8173V55.1875Z" fill="#21272D"/>
<path d="M29.1641 55.1875H24.9884V59.3632H29.1641V55.1875Z" fill="#21272D"/>
<path d="M36.7141 55.1875H32.5384V59.3632H36.7141V55.1875Z" fill="#21272D"/>
<path d="M44.2636 55.1875H40.088V59.3632H44.2636V55.1875Z" fill="#21272D"/>
<path d="M63.1371 55.1875H58.9614V59.3632H63.1371V55.1875Z" fill="#21272D"/>
<path d="M66.9124 55.1875H62.7367V59.3632H66.9124V55.1875Z" fill="#21272D"/>
<path d="M70.6872 55.1875H66.5115V59.3632H70.6872V55.1875Z" fill="#21272D"/>
<path d="M84.7289 55.1875H80.5532V59.3632H84.7289V55.1875Z" fill="#21272D"/>
<path d="M96.71 55.1875H92.5343V59.3632H96.71V55.1875Z" fill="#21272D"/>
<path d="M10.2902 58.9609H6.1145V63.1366H10.2902V58.9609Z" fill="#21272D"/>
<path d="M14.4661 58.9609H10.2904V63.1366H14.4661V58.9609Z" fill="#21272D"/>
<path d="M18.6414 58.9609H14.4657V63.1366H18.6414V58.9609Z" fill="#21272D"/>
<path d="M26.4473 58.9609H22.2716V63.1366H26.4473V58.9609Z" fill="#21272D"/>
<path d="M32.9389 58.9609H28.7632V63.1366H32.9389V58.9609Z" fill="#21272D"/>
<path d="M51.8132 58.9609H47.6375V63.1366H51.8132V58.9609Z" fill="#21272D"/>
<path d="M55.588 58.9609H51.4123V63.1366H55.588V58.9609Z" fill="#21272D"/>
<path d="M63.1371 58.9609H58.9614V63.1366H63.1371V58.9609Z" fill="#21272D"/>
<path d="M66.9124 58.9609H62.7367V63.1366H66.9124V58.9609Z" fill="#21272D"/>
<path d="M70.6872 58.9609H66.5115V63.1366H70.6872V58.9609Z" fill="#21272D"/>
<path d="M74.4619 58.9609H70.2863V63.1366H74.4619V58.9609Z" fill="#21272D"/>
<path d="M84.7289 58.9609H80.5532V63.1366H84.7289V58.9609Z" fill="#21272D"/>
<path d="M88.3589 58.9609H84.1832V63.1366H88.3589V58.9609Z" fill="#21272D"/>
<path d="M92.5341 58.9609H88.3585V63.1366H92.5341V58.9609Z" fill="#21272D"/>
<path d="M96.71 58.9609H92.5343V63.1366H96.71V58.9609Z" fill="#21272D"/>
<path d="M100.885 58.9609H96.7097V63.1366H100.885V58.9609Z" fill="#21272D"/>
<path d="M10.2902 62.7402H6.1145V66.9159H10.2902V62.7402Z" fill="#21272D"/>
<path d="M22.8173 62.7402H18.6416V66.9159H22.8173V62.7402Z" fill="#21272D"/>
<path d="M26.4473 62.7402H22.2716V66.9159H26.4473V62.7402Z" fill="#21272D"/>
<path d="M29.1641 62.7402H24.9884V66.9159H29.1641V62.7402Z" fill="#21272D"/>
<path d="M36.7141 62.7402H32.5384V66.9159H36.7141V62.7402Z" fill="#21272D"/>
<path d="M40.4884 62.7402H36.3127V66.9159H40.4884V62.7402Z" fill="#21272D"/>
<path d="M44.2636 62.7402H40.088V66.9159H44.2636V62.7402Z" fill="#21272D"/>
<path d="M48.0384 62.7402H43.8627V66.9159H48.0384V62.7402Z" fill="#21272D"/>
<path d="M51.8132 62.7402H47.6375V66.9159H51.8132V62.7402Z" fill="#21272D"/>
<path d="M63.1371 62.7402H58.9614V66.9159H63.1371V62.7402Z" fill="#21272D"/>
<path d="M82.0121 62.7402H77.8364V66.9159H82.0121V62.7402Z" fill="#21272D"/>
<path d="M84.7289 62.7402H80.5532V66.9159H84.7289V62.7402Z" fill="#21272D"/>
<path d="M92.5341 62.7402H88.3585V66.9159H92.5341V62.7402Z" fill="#21272D"/>
<path d="M100.885 62.7402H96.7097V66.9159H100.885V62.7402Z" fill="#21272D"/>
<path d="M10.2902 66.5156H6.1145V70.6913H10.2902V66.5156Z" fill="#21272D"/>
<path d="M22.8173 66.5156H18.6416V70.6913H22.8173V66.5156Z" fill="#21272D"/>
<path d="M29.1641 66.5156H24.9884V70.6913H29.1641V66.5156Z" fill="#21272D"/>
<path d="M32.9389 66.5156H28.7632V70.6913H32.9389V66.5156Z" fill="#21272D"/>
<path d="M36.7141 66.5156H32.5384V70.6913H36.7141V66.5156Z" fill="#21272D"/>
<path d="M48.0384 66.5156H43.8627V70.6913H48.0384V66.5156Z" fill="#21272D"/>
<path d="M59.3634 66.5156H55.1877V70.6913H59.3634V66.5156Z" fill="#21272D"/>
<path d="M66.9124 66.5156H62.7367V70.6913H66.9124V66.5156Z" fill="#21272D"/>
<path d="M70.6872 66.5156H66.5115V70.6913H70.6872V66.5156Z" fill="#21272D"/>
<path d="M74.4619 66.5156H70.2863V70.6913H74.4619V66.5156Z" fill="#21272D"/>
<path d="M78.2367 66.5156H74.061V70.6913H78.2367V66.5156Z" fill="#21272D"/>
<path d="M82.0121 66.5156H77.8364V70.6913H82.0121V66.5156Z" fill="#21272D"/>
<path d="M84.7289 66.5156H80.5532V70.6913H84.7289V66.5156Z" fill="#21272D"/>
<path d="M92.5341 66.5156H88.3585V70.6913H92.5341V66.5156Z" fill="#21272D"/>
<path d="M96.71 66.5156H92.5343V70.6913H96.71V66.5156Z" fill="#21272D"/>
<path d="M40.4884 70.2891H36.3127V74.4647H40.4884V70.2891Z" fill="#21272D"/>
<path d="M44.2636 70.2891H40.088V74.4647H44.2636V70.2891Z" fill="#21272D"/>
<path d="M51.8132 70.2891H47.6375V74.4647H51.8132V70.2891Z" fill="#21272D"/>
<path d="M55.588 70.2891H51.4123V74.4647H55.588V70.2891Z" fill="#21272D"/>
<path d="M70.6872 70.2891H66.5115V74.4647H70.6872V70.2891Z" fill="#21272D"/>
<path d="M84.7289 70.2891H80.5532V74.4647H84.7289V70.2891Z" fill="#21272D"/>
<path d="M96.71 70.2891H92.5343V74.4647H96.71V70.2891Z" fill="#21272D"/>
<path d="M10.2902 74.0645H6.1145V78.2401H10.2902V74.0645Z" fill="#21272D"/>
<path d="M14.4661 74.0645H10.2904V78.2401H14.4661V74.0645Z" fill="#21272D"/>
<path d="M18.6414 74.0645H14.4657V78.2401H18.6414V74.0645Z" fill="#21272D"/>
<path d="M22.8173 74.0645H18.6416V78.2401H22.8173V74.0645Z" fill="#21272D"/>
<path d="M26.4473 74.0645H22.2716V78.2401H26.4473V74.0645Z" fill="#21272D"/>
<path d="M29.1641 74.0645H24.9884V78.2401H29.1641V74.0645Z" fill="#21272D"/>
<path d="M32.9389 74.0645H28.7632V78.2401H32.9389V74.0645Z" fill="#21272D"/>
<path d="M44.2636 74.0645H40.088V78.2401H44.2636V74.0645Z" fill="#21272D"/>
<path d="M48.0384 74.0645H43.8627V78.2401H48.0384V74.0645Z" fill="#21272D"/>
<path d="M51.8132 74.0645H47.6375V78.2401H51.8132V74.0645Z" fill="#21272D"/>
<path d="M63.1371 74.0645H58.9614V78.2401H63.1371V74.0645Z" fill="#21272D"/>
<path d="M70.6872 74.0645H66.5115V78.2401H70.6872V74.0645Z" fill="#21272D"/>
<path d="M78.2367 74.0645H74.061V78.2401H78.2367V74.0645Z" fill="#21272D"/>
<path d="M84.7289 74.0645H80.5532V78.2401H84.7289V74.0645Z" fill="#21272D"/>
<path d="M88.3589 74.0645H84.1832V78.2401H88.3589V74.0645Z" fill="#21272D"/>
<path d="M100.885 74.0645H96.7097V78.2401H100.885V74.0645Z" fill="#21272D"/>
<path d="M10.2902 77.8418H6.1145V82.0175H10.2902V77.8418Z" fill="#21272D"/>
<path d="M32.9389 77.8418H28.7632V82.0175H32.9389V77.8418Z" fill="#21272D"/>
<path d="M44.2636 77.8418H40.088V82.0175H44.2636V77.8418Z" fill="#21272D"/>
<path d="M55.588 77.8418H51.4123V82.0175H55.588V77.8418Z" fill="#21272D"/>
<path d="M59.3634 77.8418H55.1877V82.0175H59.3634V77.8418Z" fill="#21272D"/>
<path d="M63.1371 77.8418H58.9614V82.0175H63.1371V77.8418Z" fill="#21272D"/>
<path d="M66.9124 77.8418H62.7367V82.0175H66.9124V77.8418Z" fill="#21272D"/>
<path d="M70.6872 77.8418H66.5115V82.0175H70.6872V77.8418Z" fill="#21272D"/>
<path d="M84.7289 77.8418H80.5532V82.0175H84.7289V77.8418Z" fill="#21272D"/>
<path d="M96.71 77.8418H92.5343V82.0175H96.71V77.8418Z" fill="#21272D"/>
<path d="M10.2902 80.5586H6.1145V84.7343H10.2902V80.5586Z" fill="#21272D"/>
<path d="M18.6414 80.5586H14.4657V84.7343H18.6414V80.5586Z" fill="#21272D"/>
<path d="M22.8173 80.5586H18.6416V84.7343H22.8173V80.5586Z" fill="#21272D"/>
<path d="M26.4473 80.5586H22.2716V84.7343H26.4473V80.5586Z" fill="#21272D"/>
<path d="M32.9389 80.5586H28.7632V84.7343H32.9389V80.5586Z" fill="#21272D"/>
<path d="M40.4884 80.5586H36.3127V84.7343H40.4884V80.5586Z" fill="#21272D"/>
<path d="M55.588 80.5586H51.4123V84.7343H55.588V80.5586Z" fill="#21272D"/>
<path d="M63.1371 80.5586H58.9614V84.7343H63.1371V80.5586Z" fill="#21272D"/>
<path d="M66.9124 80.5586H62.7367V84.7343H66.9124V80.5586Z" fill="#21272D"/>
<path d="M70.6872 80.5586H66.5115V84.7343H70.6872V80.5586Z" fill="#21272D"/>
<path d="M74.4619 80.5586H70.2863V84.7343H74.4619V80.5586Z" fill="#21272D"/>
<path d="M78.2367 80.5586H74.061V84.7343H78.2367V80.5586Z" fill="#21272D"/>
<path d="M82.0121 80.5586H77.8364V84.7343H82.0121V80.5586Z" fill="#21272D"/>
<path d="M84.7289 80.5586H80.5532V84.7343H84.7289V80.5586Z" fill="#21272D"/>
<path d="M88.3589 80.5586H84.1832V84.7343H88.3589V80.5586Z" fill="#21272D"/>
<path d="M96.71 80.5586H92.5343V84.7343H96.71V80.5586Z" fill="#21272D"/>
<path d="M100.885 80.5586H96.7097V84.7343H100.885V80.5586Z" fill="#21272D"/>
<path d="M10.2902 84.1855H6.1145V88.3612H10.2902V84.1855Z" fill="#21272D"/>
<path d="M18.6414 84.1855H14.4657V88.3612H18.6414V84.1855Z" fill="#21272D"/>
<path d="M22.8173 84.1855H18.6416V88.3612H22.8173V84.1855Z" fill="#21272D"/>
<path d="M26.4473 84.1855H22.2716V88.3612H26.4473V84.1855Z" fill="#21272D"/>
<path d="M32.9389 84.1855H28.7632V88.3612H32.9389V84.1855Z" fill="#21272D"/>
<path d="M40.4884 84.1855H36.3127V88.3612H40.4884V84.1855Z" fill="#21272D"/>
<path d="M44.2636 84.1855H40.088V88.3612H44.2636V84.1855Z" fill="#21272D"/>
<path d="M48.0384 84.1855H43.8627V88.3612H48.0384V84.1855Z" fill="#21272D"/>
<path d="M66.9124 84.1855H62.7367V88.3612H66.9124V84.1855Z" fill="#21272D"/>
<path d="M70.6872 84.1855H66.5115V88.3612H70.6872V84.1855Z" fill="#21272D"/>
<path d="M74.4619 84.1855H70.2863V88.3612H74.4619V84.1855Z" fill="#21272D"/>
<path d="M78.2367 84.1855H74.061V88.3612H78.2367V84.1855Z" fill="#21272D"/>
<path d="M82.0121 84.1855H77.8364V88.3612H82.0121V84.1855Z" fill="#21272D"/>
<path d="M88.3589 84.1855H84.1832V88.3612H88.3589V84.1855Z" fill="#21272D"/>
<path d="M96.71 84.1855H92.5343V88.3612H96.71V84.1855Z" fill="#21272D"/>
<path d="M100.885 84.1855H96.7097V88.3612H100.885V84.1855Z" fill="#21272D"/>
<path d="M10.2902 88.3613H6.1145V92.537H10.2902V88.3613Z" fill="#21272D"/>
<path d="M18.6414 88.3613H14.4657V92.537H18.6414V88.3613Z" fill="#21272D"/>
<path d="M22.8173 88.3613H18.6416V92.537H22.8173V88.3613Z" fill="#21272D"/>
<path d="M26.4473 88.3613H22.2716V92.537H26.4473V88.3613Z" fill="#21272D"/>
<path d="M32.9389 88.3613H28.7632V92.537H32.9389V88.3613Z" fill="#21272D"/>
<path d="M48.0384 88.3613H43.8627V92.537H48.0384V88.3613Z" fill="#21272D"/>
<path d="M55.588 88.3613H51.4123V92.537H55.588V88.3613Z" fill="#21272D"/>
<path d="M59.3634 88.3613H55.1877V92.537H59.3634V88.3613Z" fill="#21272D"/>
<path d="M63.1371 88.3613H58.9614V92.537H63.1371V88.3613Z" fill="#21272D"/>
<path d="M82.0121 88.3613H77.8364V92.537H82.0121V88.3613Z" fill="#21272D"/>
<path d="M84.7289 88.3613H80.5532V92.537H84.7289V88.3613Z" fill="#21272D"/>
<path d="M92.5341 88.3613H88.3585V92.537H92.5341V88.3613Z" fill="#21272D"/>
<path d="M96.71 88.3613H92.5343V92.537H96.71V88.3613Z" fill="#21272D"/>
<path d="M100.885 88.3613H96.7097V92.537H100.885V88.3613Z" fill="#21272D"/>
<path d="M10.2902 92.5371H6.1145V96.7128H10.2902V92.5371Z" fill="#21272D"/>
<path d="M32.9389 92.5371H28.7632V96.7128H32.9389V92.5371Z" fill="#21272D"/>
<path d="M40.4884 92.5371H36.3127V96.7128H40.4884V92.5371Z" fill="#21272D"/>
<path d="M44.2636 92.5371H40.088V96.7128H44.2636V92.5371Z" fill="#21272D"/>
<path d="M66.9124 92.5371H62.7367V96.7128H66.9124V92.5371Z" fill="#21272D"/>
<path d="M74.4619 92.5371H70.2863V96.7128H74.4619V92.5371Z" fill="#21272D"/>
<path d="M78.2367 92.5371H74.061V96.7128H78.2367V92.5371Z" fill="#21272D"/>
<path d="M82.0121 92.5371H77.8364V96.7128H82.0121V92.5371Z" fill="#21272D"/>
<path d="M84.7289 92.5371H80.5532V96.7128H84.7289V92.5371Z" fill="#21272D"/>
<path d="M92.5341 92.5371H88.3585V96.7128H92.5341V92.5371Z" fill="#21272D"/>
<path d="M96.71 92.5371H92.5343V96.7128H96.71V92.5371Z" fill="#21272D"/>
<path d="M100.885 92.5371H96.7097V96.7128H100.885V92.5371Z" fill="#21272D"/>
<path d="M10.2902 96.7129H6.1145V100.889H10.2902V96.7129Z" fill="#21272D"/>
<path d="M14.4661 96.7129H10.2904V100.889H14.4661V96.7129Z" fill="#21272D"/>
<path d="M18.6414 96.7129H14.4657V100.889H18.6414V96.7129Z" fill="#21272D"/>
<path d="M22.8173 96.7129H18.6416V100.889H22.8173V96.7129Z" fill="#21272D"/>
<path d="M26.4473 96.7129H22.2716V100.889H26.4473V96.7129Z" fill="#21272D"/>
<path d="M29.1641 96.7129H24.9884V100.889H29.1641V96.7129Z" fill="#21272D"/>
<path d="M32.9389 96.7129H28.7632V100.889H32.9389V96.7129Z" fill="#21272D"/>
<path d="M40.4884 96.7129H36.3127V100.889H40.4884V96.7129Z" fill="#21272D"/>
<path d="M44.2636 96.7129H40.088V100.889H44.2636V96.7129Z" fill="#21272D"/>
<path d="M48.0384 96.7129H43.8627V100.889H48.0384V96.7129Z" fill="#21272D"/>
<path d="M55.588 96.7129H51.4123V100.889H55.588V96.7129Z" fill="#21272D"/>
<path d="M59.3634 96.7129H55.1877V100.889H59.3634V96.7129Z" fill="#21272D"/>
<path d="M63.1371 96.7129H58.9614V100.889H63.1371V96.7129Z" fill="#21272D"/>
<path d="M70.6872 96.7129H66.5115V100.889H70.6872V96.7129Z" fill="#21272D"/>
<path d="M74.4619 96.7129H70.2863V100.889H74.4619V96.7129Z" fill="#21272D"/>
<path d="M78.2367 96.7129H74.061V100.889H78.2367V96.7129Z" fill="#21272D"/>
<path d="M88.3589 96.7129H84.1832V100.889H88.3589V96.7129Z" fill="#21272D"/>
<path d="M100.885 96.7129H96.7097V100.889H100.885V96.7129Z" fill="#21272D"/>
</svg>
