<svg width="246" height="221" viewBox="0 0 246 221" fill="none" xmlns="http://www.w3.org/2000/svg">
<path d="M139.791 86.125C139.791 82.8125 142.695 79.5 146.429 79.5C149.748 79.5 153.067 82.8125 153.067 86.125V165.625C153.067 169.352 149.748 172.25 146.429 172.25C142.695 172.25 139.791 169.352 139.791 165.625V86.125ZM81.2929 55.4844C77.1442 57.9688 72.1656 59.625 66.3573 59.625C50.177 59.625 36.9009 44.7188 40.6348 27.7422C42.7092 17.8047 50.177 9.9375 59.7192 7.45312C62.2085 7.03906 64.2829 6.625 66.7722 6.625C71.3358 6.625 76.3144 8.28125 80.0483 10.7656C85.4417 14.0781 92.4947 13.6641 97.0584 9.10938C102.867 3.72656 110.334 0 119.462 0C128.589 0 136.472 3.72656 141.865 9.10938C146.844 13.6641 153.482 14.0781 158.875 10.7656C162.609 8.28125 168.003 6.625 172.566 6.625C175.056 6.625 177.13 7.03906 179.204 7.45312C188.747 9.9375 196.214 17.8047 198.289 27.7422C202.023 44.7188 188.747 59.625 172.566 59.625C167.173 59.625 162.194 57.9688 157.631 55.4844C152.237 51.7578 145.599 53.8281 141.865 57.5547C136.057 62.9375 127.759 66.25 119.462 66.25C110.749 66.25 102.867 62.9375 97.0584 57.5547C93.3244 53.8281 86.6864 51.7578 81.2929 55.4844ZM53.496 30.2266C51.0068 42.2344 64.2829 50.9297 73.8251 44.3047C77.9739 41.8203 82.5376 40.1641 87.5161 40.1641C94.1542 40.1641 100.792 43.0625 106.186 48.0312C113.654 55.0703 125.685 55.0703 133.153 48.0312C138.546 43.0625 145.184 40.1641 151.822 40.1641C163.854 40.1641 173.396 53.8281 182.938 41.8203C184.598 39.75 187.087 36.0234 185.843 30.2266C183.768 21.5312 173.811 17.3906 165.928 21.9453C161.78 24.8438 156.386 26.0859 151.408 26.0859C144.769 26.0859 138.131 23.6016 133.153 18.6328C125.685 11.5938 113.654 11.5938 106.186 18.6328C101.207 23.6016 94.5691 26.0859 87.931 26.0859C82.9525 26.0859 77.559 24.4297 73.4102 21.9453C65.5275 17.3906 55.5704 21.5312 53.496 30.2266ZM113.239 86.125C113.239 82.8125 115.313 79.5 119.462 79.5C123.196 79.5 126.515 82.8125 126.515 86.125V165.625C126.515 169.352 123.196 172.25 119.877 172.25C116.143 172.25 113.239 169.352 113.239 165.625V86.125ZM212.81 66.25C231.064 66.25 246 81.1562 246 99.375V136.227C246 148.648 238.532 160.242 227.33 165.625L190.821 184.258C185.843 200.406 170.907 212 153.067 212H86.6864C64.2829 212 46.858 194.609 46.858 172.25V72.875C46.858 69.5625 49.7621 66.25 53.496 66.25C56.8151 66.25 60.1341 69.5625 60.1341 72.875V172.25C60.1341 187.156 71.7507 198.75 86.6864 198.75H153.067C167.588 198.75 179.619 187.156 179.619 172.25V72.875C179.619 69.5625 182.523 66.25 186.257 66.25H212.81ZM232.724 136.227V99.375C232.724 88.6094 223.597 79.5 212.81 79.5H192.895V168.523L221.522 154.031C228.16 150.719 232.724 143.68 232.724 136.227ZM86.6864 86.125C86.6864 82.8125 89.5905 79.5 93.3244 79.5C96.6435 79.5 99.9625 82.8125 99.9625 86.125V165.625C99.9625 169.352 96.6435 172.25 93.3244 172.25C89.5905 172.25 86.6864 169.352 86.6864 165.625V86.125Z" fill="white"/>
<path d="M81.7148 198.764L22.043 138.568C17.1445 145.756 14.25 154.291 14.25 163.5C14.25 187.309 33.3984 206.625 57 206.625C66.1289 206.625 74.5898 203.705 81.7148 198.764ZM91.7344 188.656C96.6328 181.469 99.75 172.934 99.75 163.5C99.75 139.691 80.6016 120.375 57 120.375C47.6484 120.375 39.1875 123.52 32.0625 128.461L91.7344 188.656ZM114 163.5C114 195.395 88.3945 221 57 221C25.3828 221 0 195.395 0 163.5C0 131.83 25.3828 106 57 106C88.3945 106 114 131.83 114 163.5Z" fill="#DB3D37"/>
</svg>
