<svg width="287" height="209" viewBox="0 0 287 209" fill="none" xmlns="http://www.w3.org/2000/svg">
<path d="M131.25 93.75H243.75C246.875 93.75 250 96.875 250 100C250 103.516 246.875 106.25 243.75 106.25H193.75V125H218.75C228.906 125 237.5 133.594 237.5 143.75V181.25C237.5 191.797 228.906 200 218.75 200H156.25C145.703 200 137.5 191.797 137.5 181.25V143.75C137.5 133.594 145.703 125 156.25 125H181.25V106.25H68.75V125H93.75C103.906 125 112.5 133.594 112.5 143.75V181.25C112.5 191.797 103.906 200 93.75 200H31.25C20.7031 200 12.5 191.797 12.5 181.25V143.75C12.5 133.594 20.7031 125 31.25 125H56.25V106.25H6.25C2.73438 106.25 0 103.516 0 100C0 96.875 2.73438 93.75 6.25 93.75H118.75V75H93.75C83.2031 75 75 66.7969 75 56.25V18.75C75 8.59375 83.2031 0 93.75 0H156.25C166.406 0 175 8.59375 175 18.75V56.25C175 66.7969 166.406 75 156.25 75H131.25V93.75ZM156.25 12.5H93.75C90.2344 12.5 87.5 15.625 87.5 18.75V56.25C87.5 59.7656 90.2344 62.5 93.75 62.5H156.25C159.375 62.5 162.5 59.7656 162.5 56.25V18.75C162.5 15.625 159.375 12.5 156.25 12.5ZM156.25 137.5C152.734 137.5 150 140.625 150 143.75V181.25C150 184.766 152.734 187.5 156.25 187.5H218.75C221.875 187.5 225 184.766 225 181.25V143.75C225 140.625 221.875 137.5 218.75 137.5H156.25ZM31.25 137.5C27.7344 137.5 25 140.625 25 143.75V181.25C25 184.766 27.7344 187.5 31.25 187.5H93.75C96.875 187.5 100 184.766 100 181.25V143.75C100 140.625 96.875 137.5 93.75 137.5H31.25Z" fill="white"/>
<path d="M258.68 189.164L206.336 136.82C202.039 143.07 199.5 150.492 199.5 158.5C199.5 179.203 216.297 196 237 196C245.008 196 252.43 193.461 258.68 189.164ZM267.469 180.375C271.766 174.125 274.5 166.703 274.5 158.5C274.5 137.797 257.703 121 237 121C228.797 121 221.375 123.734 215.125 128.031L267.469 180.375ZM287 158.5C287 186.234 264.539 208.5 237 208.5C209.266 208.5 187 186.234 187 158.5C187 130.961 209.266 108.5 237 108.5C264.539 108.5 287 130.961 287 158.5Z" fill="#DB3D37"/>
</svg>
