<svg width="200" height="200" viewBox="0 0 200 200" fill="none" xmlns="http://www.w3.org/2000/svg">
<path d="M58.9844 101.953C60.5469 99.6094 64.0625 99.6094 65.625 101.953C66.4062 102.734 66.7969 103.516 67.5781 104.297C75 113.281 87.5 128.125 87.5 139.844C87.5 152.344 76.1719 162.5 62.5 162.5C48.4375 162.5 37.5 152.344 37.5 139.844C37.5 128.516 49.2188 113.672 56.6406 104.688C57.4219 103.516 58.2031 102.734 58.9844 101.953ZM55.8594 126.172C51.5625 132.812 50 137.5 50 139.844C50 144.531 54.2969 150 62.5 150C70.3125 150 75 144.531 75 139.844C75 137.5 73.0469 132.812 68.75 126.172C66.7969 123.047 64.4531 120.312 62.5 117.578C60.1562 120.312 58.2031 123.047 55.8594 126.172ZM144.922 146.094C147.266 148.438 147.266 152.344 144.531 154.688C142.188 157.031 138.281 157.031 135.938 154.297C126.172 143.75 113.281 137.5 99.6094 137.5C96.4844 137.5 93.3594 134.766 93.3594 131.25C93.3594 128.125 96.4844 125 99.6094 125C117.578 125 133.203 133.203 144.922 146.094ZM130.859 71.875C135.938 71.875 140.234 76.1719 140.234 81.25C140.234 86.7188 135.938 90.625 130.859 90.625C125.781 90.625 121.484 86.7188 121.484 81.25C121.484 76.1719 125.781 71.875 130.859 71.875ZM68.3594 90.625C63.2812 90.625 58.9844 86.7188 58.9844 81.25C58.9844 76.1719 63.2812 71.875 68.3594 71.875C73.4375 71.875 77.7344 76.1719 77.7344 81.25C77.7344 86.7188 73.4375 90.625 68.3594 90.625ZM100 200C44.5312 200 0 155.469 0 100C0 44.9219 44.5312 0 100 0C155.078 0 200 44.9219 200 100C200 155.469 155.078 200 100 200ZM187.5 100C187.5 51.9531 148.047 12.5 100 12.5C51.5625 12.5 12.5 51.9531 12.5 100C12.5 148.438 51.5625 187.5 100 187.5C148.047 187.5 187.5 148.438 187.5 100Z" fill="white"/>
</svg>
