<svg width="258" height="209" viewBox="0 0 258 209" fill="none" xmlns="http://www.w3.org/2000/svg">
<path d="M249.047 64.4531C251.391 67.1875 251.391 71.0938 249.047 73.4375C247.484 74.6094 245.922 75 244.75 75C242.797 75 241.234 74.6094 240.062 73.0469C211.156 42.5781 169.359 25 126 25C82.25 25 40.4531 42.5781 11.5469 73.0469C9.20312 75.7812 5.29688 75.7812 2.95312 73.4375C0.21875 71.0938 0.21875 67.1875 2.5625 64.4531C33.8125 31.6406 78.7344 12.5 126 12.5C172.875 12.5 217.797 31.6406 249.047 64.4531ZM126 75C156.078 75 184.594 87.1094 205.297 108.203C207.641 110.938 207.641 114.844 205.297 117.188C204.125 118.359 202.562 118.75 201 118.75C199.047 118.75 197.484 118.359 196.312 117.188C177.953 98.0469 152.953 87.5 126 87.5C98.6562 87.5 73.6562 98.0469 55.2969 117.188C52.9531 119.531 49.0469 119.531 46.3125 117.188C43.9688 114.844 43.9688 110.938 46.3125 107.812C67.4062 86.7188 95.5312 75 126 75ZM125.609 137.5C139.672 137.5 150.609 148.438 150.609 162.5C150.609 176.172 139.281 187.5 125.609 187.5C111.547 187.5 100.609 176.172 100.609 162.5C100.609 148.438 111.547 137.5 125.609 137.5ZM126 175C132.641 175 138.5 169.531 138.5 162.5C138.5 155.859 132.641 150 126 150C118.969 150 113.5 155.859 113.5 162.5C113.5 169.531 118.969 175 126 175Z" fill="white"/>
<path d="M229.68 189.164L177.336 136.82C173.039 143.07 170.5 150.492 170.5 158.5C170.5 179.203 187.297 196 208 196C216.008 196 223.43 193.461 229.68 189.164ZM238.469 180.375C242.766 174.125 245.5 166.703 245.5 158.5C245.5 137.797 228.703 121 208 121C199.797 121 192.375 123.734 186.125 128.031L238.469 180.375ZM258 158.5C258 186.234 235.539 208.5 208 208.5C180.266 208.5 158 186.234 158 158.5C158 130.961 180.266 108.5 208 108.5C235.539 108.5 258 130.961 258 158.5Z" fill="#DB3D37"/>
</svg>
