<svg width="248" height="198" viewBox="0 0 248 198" fill="none" xmlns="http://www.w3.org/2000/svg">
<path d="M41.2344 65.75C41.2344 54.0312 51.3906 43.875 63.1094 43.875C75.2188 43.875 84.9844 54.0312 84.9844 65.75C84.9844 77.8594 75.2188 87.625 63.1094 87.625C51.3906 87.625 41.2344 77.8594 41.2344 65.75ZM63.1094 56.375C58.0312 56.375 53.7344 60.6719 53.7344 65.75C53.7344 71.2188 58.0312 75.125 63.1094 75.125C68.5781 75.125 72.4844 71.2188 72.4844 65.75C72.4844 60.6719 68.5781 56.375 63.1094 56.375ZM84.2031 17.3125C88.1094 18.875 91.625 20.8281 94.75 23.1719L105.297 20.0469C107.641 19.2656 109.984 20.0469 111.547 21.6094C117.797 28.6406 122.484 36.8438 125.609 46.2188C126.391 48.1719 125.609 50.5156 124.047 52.0781L115.844 59.5C116.234 61.8438 116.234 64.1875 116.234 66.1406C116.234 68.0938 116.234 70.4375 116.234 72.3906L124.047 79.8125C125.609 81.375 126.391 83.7188 125.609 85.6719C122.484 95.0469 117.797 103.25 111.547 110.281C109.984 111.844 107.641 112.625 105.297 111.844L95.5312 108.719C92.0156 111.453 88.1094 113.797 84.2031 115.359L81.8594 125.516C81.0781 127.859 79.5156 129.422 77.5625 130.203C72.875 130.984 68.1875 131.375 63.1094 131.375C58.4219 131.375 53.7344 130.984 49.0469 130.203C47.0938 129.422 45.5312 127.859 44.75 125.516L42.4062 115.359C38.5 113.797 34.5938 111.453 31.0781 108.719L21.3125 111.844C18.9688 112.625 16.625 111.844 15.0625 110.281C8.8125 103.25 4.125 95.0469 1 85.6719C0.21875 83.7188 1 81.375 2.5625 79.8125L10.375 72.3906C10.375 70.4375 10.375 68.0938 10.375 66.1406C10.375 64.1875 10.375 61.8438 10.7656 59.5L2.5625 52.0781C1 50.5156 0.21875 48.1719 1 46.2188C4.125 36.8438 8.8125 28.6406 15.0625 21.6094C16.625 20.0469 18.9688 19.2656 21.3125 20.0469L31.8594 23.1719C34.9844 20.8281 38.5 18.875 42.4062 17.3125L44.75 6.375C45.5312 4.03125 47.0938 2.46875 49.0469 1.6875C53.7344 0.90625 58.4219 0.125 63.1094 0.125C68.1875 0.125 72.875 0.90625 77.5625 1.6875C79.5156 2.46875 81.0781 4.03125 81.8594 6.375L84.2031 17.3125ZM23.6562 54.8125L22.875 61.0625C22.875 63.0156 22.4844 64.5781 22.4844 66.1406C22.4844 67.7031 22.875 69.2656 22.875 70.8281L23.6562 77.0781L14.2812 85.6719C16.2344 90.3594 18.5781 94.6562 21.7031 98.5625L33.8125 95.0469L38.8906 98.9531C41.625 100.906 44.3594 102.469 47.4844 104.031L52.9531 106.375L56.0781 118.484C58.4219 118.875 60.7656 118.875 63.1094 118.875C65.8438 118.875 68.1875 118.875 70.5312 118.484L73.6562 106.375L79.125 104.031C82.25 102.469 84.9844 100.906 87.7188 98.9531L92.7969 95.0469L104.906 98.5625C108.031 94.6562 110.375 90.3594 112.328 85.6719L102.953 77.0781L103.734 70.8281C103.734 69.2656 103.734 67.7031 103.734 66.1406C103.734 64.5781 103.734 63.0156 103.734 61.0625L102.953 54.8125L112.328 46.2188C110.375 41.5312 108.031 37.2344 104.906 33.3281L92.4062 36.8438L87.3281 33.3281C84.9844 31.375 82.25 29.8125 79.5156 28.6406L73.6562 26.2969L70.5312 13.4062C68.1875 13.0156 65.8438 12.625 63.1094 12.625C60.7656 12.625 58.4219 13.0156 56.0781 13.4062L52.9531 26.2969L47.0938 28.6406C44.3594 29.8125 41.625 31.375 39.2812 33.3281L34.2031 36.8438L21.7031 33.3281C18.5781 37.2344 16.2344 41.5312 14.2812 46.2188L23.6562 54.8125ZM182.25 112.625C193.969 112.625 204.125 122.781 204.125 134.5C204.125 146.609 193.969 156.375 182.25 156.375C170.141 156.375 160.375 146.609 160.375 134.5C160.375 122.781 170.141 112.625 182.25 112.625ZM191.625 134.5C191.625 129.422 187.328 125.125 182.25 125.125C176.781 125.125 172.875 129.422 172.875 134.5C172.875 139.969 176.781 143.875 182.25 143.875C187.328 143.875 191.625 139.969 191.625 134.5ZM230.688 155.594C229.125 159.5 227.172 163.016 224.828 166.141L227.953 176.688C228.734 179.031 227.953 181.375 226.391 182.938C219.359 189.188 211.156 193.875 201.781 197C199.828 197.781 197.484 197 195.922 195.438L188.109 187.234C186.156 187.625 183.812 187.625 181.859 187.625C179.906 187.625 177.562 187.625 175.609 187.625L168.188 195.438C166.625 197 164.281 197.781 162.328 197C152.953 193.875 144.75 189.188 137.719 182.938C136.156 181.375 135.375 179.031 136.156 176.688L139.281 166.922C136.547 163.406 134.203 159.5 132.641 155.594L122.484 153.25C120.141 152.469 118.578 150.906 117.797 148.562C117.016 144.266 116.625 139.578 116.625 134.5C116.625 129.812 117.016 125.125 117.797 120.438C118.578 118.484 120.141 116.531 122.484 116.141L132.641 113.797C134.203 109.891 136.547 105.984 139.281 102.469L136.156 92.7031C135.375 90.3594 136.156 88.0156 137.719 86.4531C144.75 80.2031 152.953 75.5156 162.328 72.3906C164.281 71.6094 166.625 72.3906 168.188 73.9531L175.609 81.7656C177.562 81.7656 179.906 81.375 181.859 81.375C183.812 81.375 186.156 81.7656 188.109 81.7656L195.922 73.9531C197.484 72.3906 199.828 71.6094 201.781 72.3906C211.156 75.5156 219.359 80.2031 226.391 86.4531C227.953 88.0156 228.734 90.3594 227.953 92.7031L224.828 103.25C227.172 106.375 229.125 109.891 230.688 113.797L241.625 116.141C243.969 116.531 245.531 118.484 246.312 120.438C247.094 125.125 247.875 129.812 247.875 134.5C247.875 139.578 247.094 144.266 246.312 148.562C245.531 150.906 243.969 152.469 241.625 153.25L230.688 155.594ZM193.188 95.0469L186.938 94.2656C184.984 94.2656 183.422 93.875 181.859 93.875C180.297 93.875 178.734 94.2656 177.172 94.2656L170.922 95.0469L162.328 85.6719C157.641 87.625 153.344 89.9688 149.438 93.0938L152.953 105.203L149.047 110.281C147.094 112.625 145.531 115.75 143.969 118.875L141.625 124.344L129.516 127.469C129.125 129.812 129.125 132.156 129.125 134.5C129.125 137.234 129.125 139.578 129.516 141.922L141.625 145.047L143.969 150.516C145.531 153.641 147.094 156.375 149.047 159.109L152.953 164.188L149.438 176.297C153.344 179.422 157.641 181.766 162.328 183.719L170.922 174.344L177.172 175.125C178.734 175.125 180.297 175.125 181.859 175.125C183.422 175.125 184.984 175.125 186.938 175.125L193.188 174.344L201.781 183.719C206.469 181.766 210.766 179.422 214.672 176.297L211.156 163.797L214.672 158.719C216.625 156.375 218.188 153.641 219.359 150.906L221.703 145.047L234.594 141.922C234.984 139.578 235.375 137.234 235.375 134.5C235.375 132.156 234.984 129.812 234.594 127.469L221.703 124.344L219.359 118.484C218.188 115.75 216.625 113.016 214.672 110.672L211.156 105.594L214.672 93.0938C210.766 89.9688 206.469 87.625 201.781 85.6719L193.188 95.0469Z" fill="white"/>
</svg>
