<svg width="149" height="130" viewBox="0 0 149 130" fill="none" xmlns="http://www.w3.org/2000/svg">
<path d="M21.1389 86.0147C24.0014 86.0147 26.4236 88.4283 26.4236 91.2809C26.4236 94.3528 24.0014 96.5471 21.1389 96.5471C18.0561 96.5471 15.8542 94.3528 15.8542 91.2809C15.8542 88.4283 18.0561 86.0147 21.1389 86.0147ZM42.2777 86.0147C45.1403 86.0147 47.5625 88.4283 47.5625 91.2809C47.5625 94.3528 45.1403 96.5471 42.2777 96.5471C39.195 96.5471 36.993 94.3528 36.993 91.2809C36.993 88.4283 39.195 86.0147 42.2777 86.0147ZM112.741 70.216C120.448 70.216 126.833 76.5794 126.833 84.2593V98.3025C126.833 106.202 120.448 112.346 112.741 112.346H14.0926C6.1655 112.346 0 106.202 0 98.3025V84.2593C0 76.5794 6.1655 70.216 14.0926 70.216H73.986V52.662C73.986 50.9066 75.7476 49.1512 77.5092 49.1512C79.2708 49.1512 81.0323 50.9066 81.0323 52.662V70.216H112.741ZM119.787 98.3025V84.2593C119.787 80.529 116.484 77.2377 112.741 77.2377H14.0926C10.129 77.2377 7.04629 80.529 7.04629 84.2593V98.3025C7.04629 102.252 10.129 105.324 14.0926 105.324H112.741C116.484 105.324 119.787 102.252 119.787 98.3025ZM33.9103 22.8202C32.3689 24.1368 30.1669 23.9173 28.8457 22.3814C27.7448 20.8454 27.7448 18.6511 29.2861 17.554C42.7181 6.36333 59.8935 0 77.5092 0C94.9047 0 112.08 6.36333 125.512 17.554C127.053 18.6511 127.053 20.8454 125.952 22.3814C125.292 23.2591 124.191 23.6979 123.31 23.6979C122.429 23.6979 121.549 23.4785 120.888 22.8202C108.777 12.7267 93.3633 7.02161 77.5092 7.02161C61.4348 7.02161 46.0211 12.7267 33.9103 22.8202ZM43.3787 33.3526C52.8472 25.4533 64.958 21.0648 77.5092 21.0648C89.8402 21.0648 101.951 25.4533 111.419 33.3526C112.961 34.6692 112.961 36.8634 111.86 38.3994C111.199 39.2771 110.098 39.716 109.217 39.716C108.337 39.716 107.456 39.2771 106.795 38.8383C98.6481 32.0361 88.0786 28.0864 77.5092 28.0864C66.7196 28.0864 56.1501 32.0361 48.0028 38.8383C46.4615 40.1548 44.2595 39.9354 42.9383 38.3994C41.8373 36.8634 41.8373 34.6692 43.3787 33.3526Z" fill="white"/>
<path d="M132.63 119.139L103.03 89.7364C100.6 93.2473 99.1644 97.4163 99.1644 101.915C99.1644 113.544 108.663 122.979 120.371 122.979C124.899 122.979 129.096 121.553 132.63 119.139ZM137.601 114.202C140.031 110.692 141.577 106.522 141.577 101.915C141.577 90.285 132.078 80.8497 120.371 80.8497C115.732 80.8497 111.535 82.3857 108 84.7994L137.601 114.202ZM148.646 101.915C148.646 117.494 135.944 130.001 120.371 130.001C104.687 130.001 92.0957 117.494 92.0957 101.915C92.0957 86.4451 104.687 73.8281 120.371 73.8281C135.944 73.8281 148.646 86.4451 148.646 101.915Z" fill="#DB3D37"/>
</svg>
