<svg width="237" height="201" viewBox="0 0 237 201" fill="none" xmlns="http://www.w3.org/2000/svg">
<path d="M212 12.5C225.672 12.5 237 23.8281 237 37.5V62.5C237 76.5625 225.672 87.5 212 87.5H62C47.9375 87.5 37 76.5625 37 62.5V37.5C37 23.8281 47.9375 12.5 62 12.5H212ZM224.5 62.5V37.5C224.5 30.8594 218.641 25 212 25H62C54.9688 25 49.5 30.8594 49.5 37.5V62.5C49.5 69.5312 54.9688 75 62 75H212C218.641 75 224.5 69.5312 224.5 62.5ZM199.5 40.625C204.578 40.625 208.875 44.9219 208.875 50C208.875 55.4688 204.578 59.375 199.5 59.375C194.031 59.375 190.125 55.4688 190.125 50C190.125 44.9219 194.031 40.625 199.5 40.625ZM162 40.625C167.078 40.625 171.375 44.9219 171.375 50C171.375 55.4688 167.078 59.375 162 59.375C156.531 59.375 152.625 55.4688 152.625 50C152.625 44.9219 156.531 40.625 162 40.625ZM212 112.5C225.672 112.5 237 123.828 237 137.5V162.5C237 176.562 225.672 187.5 212 187.5H62C47.9375 187.5 37 176.562 37 162.5V137.5C37 123.828 47.9375 112.5 62 112.5H212ZM224.5 162.5V137.5C224.5 130.859 218.641 125 212 125H62C54.9688 125 49.5 130.859 49.5 137.5V162.5C49.5 169.531 54.9688 175 62 175H212C218.641 175 224.5 169.531 224.5 162.5ZM199.5 140.625C204.578 140.625 208.875 144.922 208.875 150C208.875 155.469 204.578 159.375 199.5 159.375C194.031 159.375 190.125 155.469 190.125 150C190.125 144.922 194.031 140.625 199.5 140.625ZM162 140.625C167.078 140.625 171.375 144.922 171.375 150C171.375 155.469 167.078 159.375 162 159.375C156.531 159.375 152.625 155.469 152.625 150C152.625 144.922 156.531 140.625 162 140.625Z" fill="white"/>
<path d="M71.6797 181.164L19.3359 128.82C15.0391 135.07 12.5 142.492 12.5 150.5C12.5 171.203 29.2969 188 50 188C58.0078 188 65.4297 185.461 71.6797 181.164ZM80.4688 172.375C84.7656 166.125 87.5 158.703 87.5 150.5C87.5 129.797 70.7031 113 50 113C41.7969 113 34.375 115.734 28.125 120.031L80.4688 172.375ZM100 150.5C100 178.234 77.5391 200.5 50 200.5C22.2656 200.5 0 178.234 0 150.5C0 122.961 22.2656 100.5 50 100.5C77.5391 100.5 100 122.961 100 150.5Z" fill="#DB3D37"/>
</svg>
