<svg width="105" height="99" viewBox="0 0 105 99" fill="none" xmlns="http://www.w3.org/2000/svg">
<path d="M88.6305 88.1394L59.0301 58.7364C56.6003 62.2473 55.1644 66.4163 55.1644 70.9145C55.1644 82.5441 64.663 91.9794 76.3706 91.9794C80.899 91.9794 85.0961 90.5531 88.6305 88.1394ZM93.6007 83.2024C96.0305 79.6916 97.5768 75.5225 97.5768 70.9145C97.5768 59.285 88.0782 49.8497 76.3706 49.8497C71.7318 49.8497 67.5347 51.3857 64.0003 53.7994L93.6007 83.2024ZM104.646 70.9145C104.646 86.4937 91.9439 99.001 76.3706 99.001C60.6869 99.001 48.0957 86.4937 48.0957 70.9145C48.0957 55.4451 60.6869 42.8281 76.3706 42.8281C91.9439 42.8281 104.646 55.4451 104.646 70.9145Z" fill="#DB3D37"/>
<path d="M22.6875 67.375C22.6875 64.3333 22.7917 61.8333 23 59.875C23.2083 57.9167 23.6042 56.2292 24.1875 54.8125C24.8125 53.3958 25.75 51.9792 27 50.5625C28.25 49.1458 29.9375 47.4792 32.0625 45.5625C35.0208 42.8958 37.3125 40.4167 38.9375 38.125C40.6042 35.8333 41.7708 33.6042 42.4375 31.4375C43.1458 29.2708 43.5 27.0625 43.5 24.8125C43.5 20.3958 42.3125 17 39.9375 14.625C37.6042 12.25 34.25 11.0625 29.875 11.0625C26.0833 11.0625 22.8542 12.1042 20.1875 14.1875C17.5625 16.2292 16.25 19.25 16.25 23.25H4.5L4.3125 22.875C4.22917 18.4167 5.27083 14.5208 7.4375 11.1875C9.64583 7.85417 12.6875 5.27083 16.5625 3.4375C20.4375 1.60417 24.875 0.6875 29.875 0.6875C38.0833 0.6875 44.4583 2.79167 49 7C53.5417 11.1667 55.8125 17 55.8125 24.5C55.8125 28.0833 55.2083 31.3542 54 34.3125C52.8333 37.2292 51.0625 40.1667 48.6875 43.125C46.3125 46.0417 43.3333 49.3125 39.75 52.9375C38.2917 54.4375 37.2292 55.8125 36.5625 57.0625C35.8958 58.2708 35.4583 59.6667 35.25 61.25C35.0833 62.7917 35 64.8333 35 67.375H22.6875ZM22.5625 93V80H35.375V93H22.5625Z" fill="white"/>
</svg>
